<svg width="192" height="100" viewBox="0 0 192 100" fill="none" xmlns="http://www.w3.org/2000/svg">
<g clip-path="url(#clip0_481_655)">
<path d="M94.83 33.01C97.43 29.33 99.93 25.83 102.39 22.32C105.01 18.57 107.6 14.8 110.22 11.05C120.42 -3.56003 141.73 -3.75003 152.1 10.85C163.71 27.18 175.2 43.6 186.57 60.11C196.56 74.62 189.94 93.89 173.5 98.65C163.25 101.62 152.36 97.85 146.12 89.09C141.21 82.19 136.39 75.22 131.29 67.94C129.27 70.77 127.4 73.35 125.57 75.96C122.51 80.31 119.4 84.63 116.44 89.06C107.07 103.07 82.99 103.45 73.02 88.95C61.71 72.5 50.24 56.17 38.68 39.91C27.57 24.29 36.66 3.64997 54.02 0.569965C64.37 -1.26003 72.89 2.26997 79.11 10.8C84.01 17.52 88.69 24.4 93.47 31.2C93.84 31.73 94.25 32.24 94.83 33.01Z" fill="#1C9385"/>
<path d="M58.28 0.170044C67.53 0.470044 74.29 3.98004 79.17 10.91C90.84 27.49 102.49 44.09 114.08 60.73C121.93 71.99 119.02 87.34 107.63 95.36C96.71 103.05 81.22 100.42 73.3 89.27C61.56 72.74 49.88 56.16 38.44 39.42C28.1 24.29 36.14 4.11004 53.61 0.710044C55.39 0.360044 57.23 0.290044 58.28 0.170044Z" fill="#1C9385"/>
<path d="M131.55 0.199951C140.49 0.399951 147.34 4.07995 152.31 11.15C163.73 27.4 175.14 43.66 186.47 59.97C196.5 74.3999 190.49 92.84 173.99 98.53C164.32 101.87 152.57 98.18 146.48 89.58C134.48 72.62 122.47 55.66 110.77 38.5C105.24 30.3899 105.19 21.54 109.92 12.99C114.6 4.50995 122.08 0.329951 131.55 0.199951Z" fill="#1C9385"/>
<path d="M45.5299 67.51C44.0399 63.63 41.4199 60.14 39.0599 56.66C34.0699 49.31 28.9099 42.07 23.6999 34.61C23.2499 35.03 23.0399 35.17 22.8999 35.36C16.5099 44.48 10.0399 53.54 3.76992 62.75C0.349924 67.77 -0.730076 73.43 0.449924 79.42C2.30992 88.83 7.83992 95.2 16.9999 97.87C25.9499 100.48 34.1099 98.33 40.4899 91.5C46.8899 84.65 48.9499 76.4 45.5199 67.51H45.5299Z" fill="#1C9385"/>
<path d="M32.7699 66.39C29.5499 74.83 26.6099 82.51 23.6799 90.19C23.4899 90.17 23.2999 90.16 23.1099 90.14C22.5499 85.23 21.9799 80.32 21.3799 75.1L14.4099 77.17C17.5799 68.84 20.5199 61.11 23.4699 53.38C23.6599 53.4 23.8499 53.41 24.0399 53.43C24.5999 58.34 25.1699 63.25 25.7699 68.47C28.0799 67.79 30.0599 67.2 32.7599 66.4L32.7699 66.39Z" fill="white"/>
</g>
<defs>
<clipPath id="clip0_481_655">
<rect width="191.35" height="99.76" fill="white"/>
</clipPath>
</defs>
</svg>
